<svg xmlns="http://www.w3.org/2000/svg" style="display:none;">
  <symbol id="edit-step" viewBox="0 0 470.007 470.007">
    <title>Edit step</title>
    <g>
    	<path style="fill:#F2484B;" d="M261.52,321.623L391.795,451.9l24.749-24.748l-59.565-59.565c-2.929-2.93-2.929-7.678,0-10.607
    		c2.93-2.928,7.678-2.928,10.607,0l59.565,59.565l24.749-24.749L321.623,261.52c-2.929-2.93-2.929-7.678,0-10.607l-10.606-10.605
    		l-70.71,70.711l10.606,10.605C253.842,318.696,258.59,318.696,261.52,321.623z M286.268,286.268c2.93-2.928,7.678-2.928,10.607,0
    		l35.355,35.355c2.929,2.93,2.929,7.678,0,10.607c-1.465,1.464-3.385,2.196-5.304,2.196s-3.839-0.732-5.304-2.196l-35.355-35.355
    		C283.339,293.946,283.339,289.198,286.268,286.268z"/>
    	<path style="fill:#F2484B;" d="M219.094,148.383c-2.929,2.927-7.677,2.928-10.607,0l-78.192-78.191
    		c-2.018,3.443-4.489,6.651-7.364,9.527c-5.88,5.88-13.012,9.975-20.571,12.035l81.378,81.377c2.929,2.93,2.929,7.678,0,10.607
    		c-1.465,1.464-3.385,2.196-5.304,2.196s-3.839-0.732-5.304-2.196l-81.378-81.377c-2.06,7.558-6.155,14.689-12.034,20.569
    		c-2.876,2.875-6.084,5.346-9.528,7.364l78.192,78.191c2.929,2.93,2.929,7.678,0,10.607l10.606,10.605l70.711-70.711
    		L219.094,148.383z"/>
    	<polygon style="fill:#F2484B;" points="44.328,30.776 21.289,21.289 30.776,44.328 	"/>
    	<path style="fill:#FFCC75;" d="M118.14,61.169L59.355,36.964L36.964,59.355l24.206,58.785c2.888-1.496,5.576-3.449,7.942-5.816
    		c7.088-7.087,10.371-16.71,8.784-25.743c-0.423-2.408,0.354-4.872,2.084-6.602c1.728-1.729,4.193-2.506,6.602-2.083
    		c9.029,1.586,18.655-1.696,25.742-8.784C114.69,66.745,116.644,64.058,118.14,61.169z"/>
    	<path style="fill:#082947;" d="M467.81,386.491L332.231,250.912c-2.93-2.928-7.678-2.928-10.607,0
    		c-2.929,2.93-2.929,7.678,0,10.607L451.9,391.795l-24.749,24.749l-59.565-59.565c-2.93-2.928-7.678-2.928-10.607,0
    		c-2.929,2.93-2.929,7.678,0,10.607l59.565,59.565L391.795,451.9L261.52,321.623c-2.93-2.928-7.678-2.928-10.607,0
    		c-2.929,2.93-2.929,7.678,0,10.607L386.492,467.81c1.465,1.464,3.385,2.196,5.304,2.196s3.839-0.732,5.304-2.196l70.711-70.711
    		C470.739,394.169,470.739,389.421,467.81,386.491z"/>
    	<path style="fill:#082947;" d="M148.383,208.487l-78.192-78.191c3.443-2.019,6.652-4.489,9.528-7.364
    		c5.879-5.88,9.974-13.012,12.034-20.569l81.378,81.377c1.465,1.464,3.385,2.196,5.304,2.196s3.839-0.732,5.304-2.196
    		c2.929-2.93,2.929-7.678,0-10.607L102.36,91.754c7.558-2.061,14.69-6.155,20.571-12.035c2.875-2.876,5.346-6.084,7.364-9.527
    		l78.192,78.191c2.931,2.928,7.679,2.927,10.607,0c2.929-2.93,2.929-7.678,0-10.607l-86.082-86.081
    		c-0.014-0.014-0.029-0.025-0.042-0.038c-0.069-0.067-0.142-0.13-0.214-0.194c-0.645-0.588-1.383-1.065-2.192-1.399L60.441,21.189
    		c-0.019-0.009-0.038-0.017-0.057-0.024l-50.028-20.6c-2.8-1.151-6.018-0.508-8.159,1.632c-2.141,2.142-2.784,5.359-1.632,8.159
    		l20.596,50.019c0.01,0.025,0.021,0.051,0.032,0.077l28.87,70.112c0.352,0.854,0.863,1.63,1.497,2.3
    		c0.03,0.032,0.058,0.066,0.089,0.098c0.016,0.017,0.03,0.034,0.046,0.051l86.081,86.082c1.465,1.464,3.384,2.196,5.304,2.196
    		c1.919,0,3.839-0.732,5.304-2.196C151.312,216.164,151.312,211.416,148.383,208.487z M86.581,77.896
    		c-2.408-0.423-4.874,0.354-6.602,2.083c-1.729,1.729-2.507,4.193-2.084,6.602c1.587,9.033-1.696,18.656-8.784,25.743
    		c-2.366,2.367-5.054,4.32-7.942,5.816L36.964,59.355l22.392-22.391l58.784,24.205c-1.496,2.889-3.449,5.576-5.816,7.942
    		C105.237,76.199,95.611,79.482,86.581,77.896z M44.328,30.776L30.776,44.328l-9.487-23.039L44.328,30.776z"/>
    	<path style="fill:#082947;" d="M321.623,332.231c1.465,1.464,3.385,2.196,5.304,2.196s3.839-0.732,5.304-2.196
    		c2.929-2.93,2.929-7.678,0-10.607l-35.355-35.355c-2.93-2.928-7.678-2.928-10.607,0c-2.929,2.93-2.929,7.678,0,10.607
    		L321.623,332.231z"/>
    	<path style="fill:#FF6E1D;" d="M390.288,122.931c-5.879-5.88-9.974-13.012-12.034-20.569L182.261,298.353
    		c-1.465,1.464-3.385,2.196-5.304,2.196c-1.92,0-3.839-0.732-5.304-2.196c-2.929-2.93-2.929-7.678,0-10.607L367.646,91.754
    		c-7.558-2.06-14.689-6.155-20.57-12.035c-2.875-2.876-5.345-6.084-7.364-9.528L18.107,391.795l24.749,24.749L143.37,316.03
    		c2.93-2.928,7.678-2.928,10.607,0c2.929,2.93,2.929,7.678,0,10.607L53.463,427.152L78.211,451.9l321.604-321.604
    		C396.372,128.277,393.163,125.807,390.288,122.931z"/>
    	<polygon style="fill:#FF6E1D;" points="439.231,44.328 448.717,21.289 425.678,30.776 	"/>
    	<path style="fill:#FFCC75;" d="M357.683,69.112c7.088,7.088,16.715,10.377,25.742,8.784c2.409-0.422,4.873,0.354,6.602,2.083
    		c1.729,1.729,2.507,4.193,2.084,6.602c-1.587,9.033,1.696,18.656,8.784,25.743c2.366,2.367,5.054,4.32,7.942,5.816l24.206-58.785
    		l-22.392-22.391l-58.784,24.205C353.363,64.058,355.317,66.746,357.683,69.112z"/>
    	<path style="fill:#082947;" d="M418.312,133.012c0.016-0.017,0.03-0.034,0.046-0.051c0.031-0.031,0.059-0.065,0.089-0.099
    		c0.634-0.669,1.145-1.445,1.496-2.299l28.868-70.104c0.012-0.03,0.025-0.061,0.038-0.092l20.594-50.012
    		c1.152-2.8,0.509-6.018-1.632-8.159c-2.142-2.14-5.358-2.783-8.159-1.632L409.63,21.162c-0.024,0.01-0.048,0.02-0.072,0.029
    		l-70.115,28.872c-0.809,0.333-1.547,0.811-2.192,1.398c-0.072,0.064-0.145,0.128-0.214,0.194c-0.013,0.014-0.028,0.024-0.042,0.038
    		L229.7,158.989l-70.711,70.711L2.197,386.491C0.79,387.899,0,389.806,0,391.795s0.79,3.896,2.196,5.304l70.711,70.711
    		c1.407,1.406,3.314,2.196,5.304,2.196s3.896-0.79,5.304-2.196l156.792-156.792l70.71-70.711L418.312,133.012z M53.463,427.152
    		l100.514-100.515c2.929-2.93,2.929-7.678,0-10.607c-2.93-2.928-7.678-2.928-10.607,0L42.855,416.544l-24.749-24.749L339.712,70.191
    		c2.018,3.444,4.489,6.652,7.364,9.528c5.881,5.88,13.012,9.976,20.57,12.035L171.654,287.745c-2.929,2.93-2.929,7.678,0,10.607
    		c1.465,1.464,3.384,2.196,5.304,2.196c1.919,0,3.839-0.732,5.304-2.196l195.992-195.991c2.06,7.558,6.155,14.689,12.034,20.569
    		c2.876,2.876,6.084,5.346,9.528,7.364L78.211,451.9L53.463,427.152z M410.651,36.964l22.392,22.391l-24.206,58.785
    		c-2.888-1.496-5.576-3.449-7.942-5.816c-7.088-7.087-10.371-16.71-8.784-25.743c0.423-2.408-0.354-4.872-2.084-6.602
    		c-1.729-1.729-4.192-2.505-6.602-2.083c-9.027,1.593-18.654-1.696-25.742-8.784c-2.366-2.365-4.32-5.054-5.816-7.942
    		L410.651,36.964z M439.231,44.328l-13.552-13.553l23.039-9.486L439.231,44.328z"/>
    </g>
  </symbol>

  <symbol id="delete-step" viewBox="0 0 483 483">
    <title>Delete step</title>
    <g>
    	<rect x="132.669" style="fill:#D8D7DA;" width="123.232" height="38"/>
    	<rect x="194.285" y="38" style="fill:#787680;" width="160" height="80"/>
    	<path style="fill:#ACABB1;" d="M194.285,288.025c22.186-43.793,67.643-73.884,120-73.884c4.602,0,9.15,0.234,13.635,0.687
    		L334.245,118h-139.96V288.025z"/>
    	<path style="fill:#ACABB1;" d="M194.285,443h24.42c-9.795-9.913-18.063-21.335-24.42-33.884V443z"/>
    	<path style="fill:#C6C5CA;" d="M179.856,348.57c0-21.767,5.206-42.339,14.429-60.545V118H54.325l21.23,325h118.73v-33.884
    		C185.062,390.909,179.856,370.337,179.856,348.57z"/>
    	<rect x="34.285" y="38" style="fill:#898890;" width="160" height="80"/>
    	<path style="fill:#FFDA44;" d="M314.285,376.855l-29.427,29.427l-28.284-28.284l29.427-29.427l-29.427-29.427l28.284-28.284
    		l29.427,29.427V214.141c-52.357,0-97.814,30.091-120,73.884c-9.223,18.207-14.429,38.778-14.429,60.545
    		c0,21.767,5.206,42.339,14.429,60.546c6.357,12.549,14.626,23.971,24.42,33.884c24.386,24.68,58.225,40,95.58,40V376.855z"/>
    	<path style="fill:#FFCD00;" d="M327.92,214.828c-4.484-0.454-9.033-0.687-13.635-0.687v106.145c0,0,29.427-29.427,29.427-29.427
    		l28.284,28.284l-29.427,29.427l29.427,29.427l-28.284,28.284l-29.427-29.427c0,0,0,106.145,0,106.145
    		c74.125,0,134.429-60.305,134.429-134.43C448.715,279.048,395.665,221.684,327.92,214.828z"/>
    	<polygon style="fill:#2488FF;" points="256.574,319.144 286.001,348.571 256.574,377.998 284.859,406.282 314.286,376.855
    		343.713,406.282 371.997,377.998 342.57,348.571 371.997,319.144 343.713,290.859 314.286,320.286 284.859,290.859 	"/>
    </g>
  </symbol>

  <symbol id="icon__loading" viewBox="0 0 24 24">
    <title>Icon loading to button</title>
    <path d="M12.005 17.908h-.01c-.51 0-.928.415-.928.93v4.233c0 .513.417.93.93.93h.008c.512 0 .93-.417.93-.93v-4.233c0-.512-.418-.93-.93-.93zm.927-16.98c0-.512-.416-.928-.928-.928h-.01c-.512 0-.928.416-.927.928v4.234c0 .513.417.93.93.93h.008c.512 0 .93-.417.93-.93h-.003V.928zm-6.84 11.077v-.01c0-.51-.417-.928-.93-.928H.928c-.512 0-.928.417-.928.93v.008c0 .512.416.928.928.928h4.234c.513 0 .93-.416.93-.928zm16.98-.938h-4.235c-.512 0-.928.417-.928.93v.008c0 .512.415.928.927.928h4.234c.514 0 .93-.416.93-.928v-.01c0-.51-.416-.928-.93-.928zm-6.845 6.388c-.256-.445-.825-.596-1.268-.34l-.01.005c-.444.256-.595.823-.34 1.268l2.117 3.667c.257.445.824.596 1.27.34l.007-.005c.444-.257.596-.824.34-1.27l-2.117-3.665zM7.273 1.947c-.256-.445-.823-.596-1.268-.34l-.008.004c-.445.257-.596.825-.34 1.27l2.117 3.666c.256.445.823.596 1.268.34l.008-.005c.444-.255.596-.823.34-1.268L7.273 1.947zm-.388 13.01l-.005-.006c-.257-.444-.824-.595-1.27-.34l-3.665 2.117c-.445.256-.596.824-.34 1.27l.005.007c.256.444.824.596 1.27.34l3.665-2.117c.445-.256.596-.825.34-1.27zm10.228-5.915l.006.008c.255.445.822.596 1.267.34l3.667-2.117c.443-.256.596-.823.34-1.268l-.005-.008c-.258-.445-.825-.596-1.27-.34l-3.667 2.116c-.445.257-.596.824-.34 1.27zm4.942 7.685l-3.668-2.116c-.443-.255-1.012-.104-1.268.34l-.005.008c-.256.444-.105 1.013.34 1.27l3.666 2.115c.445.257 1.014.104 1.27-.34l.005-.007c.256-.444.105-1.013-.34-1.27zM1.945 7.272L5.61 9.388c.445.257 1.013.105 1.27-.34l.005-.007c.256-.443.104-1.01-.34-1.268L2.88 5.656c-.445-.256-1.014-.105-1.27.34l-.005.008c-.256.443-.105 1.012.34 1.268zM9.05 17.12l-.01-.005c-.443-.256-1.01-.105-1.268.34L5.656 21.12c-.256.445-.105 1.013.34 1.27l.008.005c.443.256 1.012.105 1.268-.34l2.117-3.667c.255-.443.104-1.012-.34-1.268zm5.9-10.24l.01.005c.442.256 1.01.105 1.267-.34l2.116-3.668c.257-.444.104-1.012-.34-1.27l-.007-.002c-.444-.257-1.012-.105-1.27.34L14.612 5.61c-.257.445-.104 1.013.34 1.27z" fill-rule="evenodd"/>
  </symbol>

  <symbol id="icon-success" viewBox="0 0 507.2 507.2">
    <title>Icon success</title>
    <circle style="fill:#32BA7C;" cx="253.6" cy="253.6" r="253.6"/>
    <path style="fill:#0AA06E;" d="M188.8,368l130.4,130.4c108-28.8,188-127.2,188-244.8c0-2.4,0-4.8,0-7.2L404.8,152L188.8,368z"/>
    <g>
    	<path style="fill:#FFFFFF;" d="M260,310.4c11.2,11.2,11.2,30.4,0,41.6l-23.2,23.2c-11.2,11.2-30.4,11.2-41.6,0L93.6,272.8
    		c-11.2-11.2-11.2-30.4,0-41.6l23.2-23.2c11.2-11.2,30.4-11.2,41.6,0L260,310.4z"/>
    	<path style="fill:#FFFFFF;" d="M348.8,133.6c11.2-11.2,30.4-11.2,41.6,0l23.2,23.2c11.2,11.2,11.2,30.4,0,41.6l-176,175.2
    		c-11.2,11.2-30.4,11.2-41.6,0l-23.2-23.2c-11.2-11.2-11.2-30.4,0-41.6L348.8,133.6z"/>
    </g>
  </symbol>

  <symbol id="icon-failure" viewBox="0 0 507.2 507.2">
    <title>Icon failure</title>
    <circle style="fill:#F15249;" cx="253.6" cy="253.6" r="253.6"/>
    <path style="fill:#AD0E0E;" d="M147.2,368L284,504.8c115.2-13.6,206.4-104,220.8-219.2L367.2,148L147.2,368z"/>
    <path style="fill:#FFFFFF;" d="M373.6,309.6c11.2,11.2,11.2,30.4,0,41.6l-22.4,22.4c-11.2,11.2-30.4,11.2-41.6,0l-176-176
    	c-11.2-11.2-11.2-30.4,0-41.6l23.2-23.2c11.2-11.2,30.4-11.2,41.6,0L373.6,309.6z"/>
    <path style="fill:#D6D6D6;" d="M280.8,216L216,280.8l93.6,92.8c11.2,11.2,30.4,11.2,41.6,0l23.2-23.2c11.2-11.2,11.2-30.4,0-41.6
    	L280.8,216z"/>
    <path style="fill:#FFFFFF;" d="M309.6,133.6c11.2-11.2,30.4-11.2,41.6,0l23.2,23.2c11.2,11.2,11.2,30.4,0,41.6L197.6,373.6
    	c-11.2,11.2-30.4,11.2-41.6,0l-22.4-22.4c-11.2-11.2-11.2-30.4,0-41.6L309.6,133.6z"/>
  </symbol>

  <symbol id="empty-user" viewBox="0 0 60 60">
    <title>Empty User</title>
    <path d="M48.014,42.889l-9.553-4.776C37.56,37.662,37,36.756,37,35.748v-3.381c0.229-0.28,0.47-0.599,0.719-0.951
    	c1.239-1.75,2.232-3.698,2.954-5.799C42.084,24.97,43,23.575,43,22v-4c0-0.963-0.36-1.896-1-2.625v-5.319
    	c0.056-0.55,0.276-3.824-2.092-6.525C37.854,1.188,34.521,0,30,0s-7.854,1.188-9.908,3.53C17.724,6.231,17.944,9.506,18,10.056
    	v5.319c-0.64,0.729-1,1.662-1,2.625v4c0,1.217,0.553,2.352,1.497,3.109c0.916,3.627,2.833,6.36,3.503,7.237v3.309
    	c0,0.968-0.528,1.856-1.377,2.32l-8.921,4.866C8.801,44.424,7,47.458,7,50.762V54c0,4.746,15.045,6,23,6s23-1.254,23-6v-3.043
    	C53,47.519,51.089,44.427,48.014,42.889z M51,54c0,1.357-7.412,4-21,4S9,55.357,9,54v-3.238c0-2.571,1.402-4.934,3.659-6.164
    	l8.921-4.866C23.073,38.917,24,37.354,24,35.655v-4.019l-0.233-0.278c-0.024-0.029-2.475-2.994-3.41-7.065l-0.091-0.396l-0.341-0.22
    	C19.346,23.303,19,22.676,19,22v-4c0-0.561,0.238-1.084,0.67-1.475L20,16.228V10l-0.009-0.131c-0.003-0.027-0.343-2.799,1.605-5.021
    	C23.253,2.958,26.081,2,30,2c3.905,0,6.727,0.951,8.386,2.828c1.947,2.201,1.625,5.017,1.623,5.041L40,16.228l0.33,0.298
    	C40.762,16.916,41,17.439,41,18v4c0,0.873-0.572,1.637-1.422,1.899l-0.498,0.153l-0.16,0.495c-0.669,2.081-1.622,4.003-2.834,5.713
    	c-0.297,0.421-0.586,0.794-0.837,1.079L35,31.623v4.125c0,1.77,0.983,3.361,2.566,4.153l9.553,4.776
    	C49.513,45.874,51,48.28,51,50.957V54z"/>
  </symbol>

  <symbol id="location-icon" viewBox="0 0 59.51 59.51">
    <title>Location icon</title>
    <polygon style="fill:#FFFFFF;" points="53.057,24.76 43.057,24.76 17.057,24.76 7.057,24.76 3.402,53.76 56.171,53.76 "/>
    <path style="fill:#556080;" d="M53.057,24.76l3.114,29H3.402l3.655-29h10h26H53.057 M55.752,21.76h-2.695h-10h-26h-10H4.411
    	L4.08,24.385l-3.655,29L0,56.76h3.402h52.769h3.339l-0.357-3.32l-3.114-29L55.752,21.76L55.752,21.76z"/>
    <path style="fill:#EBBA16;" d="M13.684,49.76c-0.257,0-0.513-0.016-0.769-0.047c-0.218-0.026-0.438-0.067-0.653-0.124
    	c-0.535-0.138-0.856-0.684-0.718-1.218c0.138-0.535,0.683-0.86,1.218-0.718c0.132,0.033,0.264,0.059,0.396,0.075
    	c0.403,0.05,0.811,0.037,1.215-0.015c0.552-0.065,1.049,0.319,1.117,0.867c0.069,0.548-0.319,1.048-0.867,1.117
    	C14.31,49.738,13.995,49.76,13.684,49.76z M18.334,48.602c-0.401,0-0.779-0.243-0.933-0.64c-0.199-0.516,0.058-1.095,0.572-1.293
    	c0.592-0.229,1.188-0.483,1.774-0.759c0.503-0.235,1.096-0.019,1.33,0.48c0.234,0.5,0.02,1.096-0.48,1.33
    	c-0.628,0.295-1.269,0.568-1.903,0.813C18.576,48.581,18.454,48.602,18.334,48.602z M9.987,46.87c-0.507,0-0.941-0.384-0.994-0.898
    	c-0.02-0.197-0.028-0.395-0.028-0.592c0-0.116,0.003-0.232,0.009-0.347c0.023-0.469,0.099-0.942,0.225-1.406
    	c0.144-0.535,0.697-0.853,1.226-0.704c0.533,0.144,0.849,0.692,0.704,1.226c-0.088,0.326-0.141,0.657-0.156,0.983
    	c-0.004,0.082-0.007,0.165-0.007,0.248c0,0.129,0.005,0.26,0.019,0.389c0.056,0.55-0.345,1.04-0.894,1.097
    	C10.055,46.868,10.021,46.87,9.987,46.87z M23.666,45.871c-0.327,0-0.648-0.16-0.84-0.455c-0.301-0.464-0.169-1.083,0.294-1.384
    	c0.535-0.347,1.066-0.72,1.58-1.107c0.444-0.332,1.068-0.241,1.401,0.196c0.332,0.441,0.244,1.068-0.196,1.401
    	c-0.552,0.415-1.122,0.815-1.695,1.188C24.041,45.819,23.853,45.871,23.666,45.871z M28.425,42.221c-0.309,0-0.613-0.143-0.81-0.411
    	c-0.325-0.446-0.227-1.072,0.22-1.397c0.209-0.151,0.422-0.3,0.641-0.441c0.377-0.245,0.781-0.477,1.2-0.688
    	c0.496-0.247,1.095-0.048,1.343,0.444c0.248,0.493,0.049,1.095-0.444,1.343c-0.354,0.178-0.693,0.372-1.01,0.577
    	c-0.188,0.123-0.372,0.25-0.552,0.382C28.835,42.159,28.629,42.221,28.425,42.221z M12.469,41.748c-0.355,0-0.699-0.189-0.88-0.523
    	c-0.264-0.485-0.083-1.092,0.402-1.355c0.518-0.281,1.071-0.456,1.644-0.52c0.29-0.033,0.593-0.032,0.891,0.008
    	c0.547,0.072,0.933,0.574,0.86,1.122c-0.072,0.546-0.561,0.931-1.122,0.86c-0.133-0.018-0.271-0.018-0.406-0.002
    	c-0.316,0.034-0.623,0.132-0.913,0.289C12.793,41.709,12.63,41.748,12.469,41.748z M33.903,39.896c-0.462,0-0.877-0.321-0.977-0.791
    	c-0.115-0.541,0.229-1.072,0.769-1.187c0.643-0.138,1.335-0.252,2.058-0.342c0.553-0.081,1.047,0.32,1.115,0.869
    	c0.068,0.548-0.321,1.048-0.869,1.115c-0.665,0.083-1.3,0.188-1.886,0.313C34.042,39.889,33.972,39.896,33.903,39.896z
    	 M39.863,39.279c-0.533,0-0.977-0.421-0.998-0.959c-0.022-0.552,0.406-1.018,0.958-1.04l1.993-0.082
    	c0.55-0.05,1.02,0.401,1.045,0.954c0.025,0.551-0.402,1.019-0.954,1.044l-2.002,0.082C39.892,39.279,39.877,39.279,39.863,39.279z
    	 M45.842,38.836c-0.465,0-0.881-0.325-0.979-0.798c-0.111-0.541,0.236-1.07,0.777-1.182c0.578-0.119,1.006-0.286,1.347-0.525
    	c0.437-0.341,1.102-0.285,1.438,0.149c0.339,0.437,0.296,1.039-0.14,1.378c-0.055,0.042-0.11,0.083-0.169,0.122
    	c-0.544,0.384-1.229,0.661-2.072,0.835C45.977,38.829,45.908,38.836,45.842,38.836z M49.911,34.806
    	c-0.098,0-0.197-0.015-0.296-0.045c-0.527-0.163-0.823-0.724-0.659-1.251c0.053-0.171,0.086-0.341,0.097-0.506l0.004-0.116
    	c0-0.229-0.044-0.462-0.13-0.694c-0.192-0.518,0.071-1.093,0.59-1.285c0.514-0.191,1.094,0.071,1.285,0.59
    	c0.169,0.455,0.255,0.923,0.255,1.39c0,0.084-0.003,0.167-0.008,0.25c-0.022,0.324-0.084,0.646-0.183,0.964
    	C50.734,34.531,50.338,34.806,49.911,34.806z M44.851,30.699c-0.436,0-0.837-0.287-0.961-0.729c-0.15-0.531,0.158-1.084,0.69-1.233
    	c0.779-0.22,1.597-0.286,2.386-0.18c0.547,0.074,0.931,0.577,0.857,1.125c-0.073,0.547-0.566,0.931-1.125,0.857
    	c-0.521-0.069-1.058-0.023-1.575,0.121C45.032,30.687,44.942,30.699,44.851,30.699z"/>
    <path style="fill:#DD352E;" d="M40.844,11.931C40.32,7.932,38.23,2.75,30.022,2.75c-8.207,0-10.298,5.182-10.822,9.181
    	c-0.287,2.192-0.126,4.419,0.33,6.582c2.509,11.893,8.71,19.022,10.177,20.577c0.172,0.182,0.458,0.182,0.63,0
    	c1.467-1.555,7.668-8.684,10.177-20.577C40.971,16.35,41.132,14.123,40.844,11.931z M30.022,19.672
    	c-3.505,0-6.346-2.841-6.346-6.346c0-3.505,2.841-6.345,6.346-6.345c3.505,0,6.346,2.841,6.346,6.345
    	C36.368,16.831,33.527,19.672,30.022,19.672z"/>
    <g>
    	<path style="fill:#B02721;" d="M30.023,5.981c-4.051,0-7.346,3.295-7.346,7.345c0,4.051,3.295,7.346,7.346,7.346
    		s7.346-3.295,7.346-7.346C37.368,9.276,34.073,5.981,30.023,5.981z M30.023,18.672c-2.947,0-5.346-2.398-5.346-5.346
    		s2.398-5.345,5.346-5.345s5.346,2.397,5.346,5.345S32.97,18.672,30.023,18.672z"/>
    </g>
  </symbol>

  <symbol id="new-icon" viewBox="0 0 512 512">
    <title>New icon</title>
    <g>
    	<g>
    		<path style="fill:#D8DCE1;" d="M184,408v32c0,19.555,14.102,35.875,32.672,39.328C220.125,497.894,236.445,512,256,512
    			s35.875-14.105,39.328-32.672C313.898,475.875,328,459.554,328,440v-32H184z"/>
    	</g>
    	<g>
    		<path style="fill:#B9BBC1;" d="M184,408v32c0,19.555,14.102,35.875,32.672,39.328C220.125,497.894,236.445,512,256,512V408H184z"
    			/>
    	</g>
    	<g>
    		<path style="fill:#8B8996;" d="M216.859,480c3.726,18.224,19.83,32,39.141,32s35.415-13.776,39.141-32H216.859z"/>
    	</g>
    	<g>
    		<path style="fill:#FFD200;" d="M456,200C456,89.719,366.281,0,256,0S56,89.719,56,200c0,82.543,51.924,157.148,128,186.601V408
    			h144v-21.396C404.078,357.153,456,282.549,456,200z"/>
    	</g>
    	<g>
    		<path style="fill:#FFEF43;" d="M328,408v-21.396C404.078,357.153,456,282.549,456,200C456,89.719,366.281,0,256,0v408H328z"/>
    	</g>
    	<g>
    		<circle style="fill:#FFFFFF;" cx="300" cy="148" r="60"/>
    	</g>
    	<g>
    		<path style="fill:#FF4F19;" d="M327.001,184h-66.144l10.979-88.808c1.28-8.448-1.67-9.625-6.556-2.615l-78.932,110.678
    			c-4.886,7.01-1.892,12.746,6.652,12.746h57.67l-11.842,104.809c-1.28,8.448,1.67,9.624,6.556,2.614l88.27-126.679
    			C338.539,189.735,335.545,184,327.001,184z"/>
    	</g>
    </g>
  </symbol>

  <symbol id="finished-icon" viewBox="0 0 507.2 507.2">
    <title>Finished icon</title>
    <path style="fill:#B8CBCD;" d="M444.727,402.065c0,22.5-86.368,39.252-191.668,39.252c-105.304,0-189.672-16.752-189.672-39.252
    	c0-22.504,85.364-40.752,190.668-40.752C359.355,361.313,444.727,379.561,444.727,402.065z"/>
    <path style="fill:#B2EDA6;" d="M398.827,320.933c-62.976,3.672-80.332-88.324-143.308-84.66
    	c27.408-57.472,54.82-114.94,82.228-172.416c62.98-3.668,80.328,88.328,143.308,84.664
    	C453.651,205.989,426.239,263.461,398.827,320.933z"/>
    <g>
    	<path style="fill:#3C663E;" d="M395.179,333.041c-34.724,0-57.128-24.628-76.892-46.364c-18.736-20.6-36.236-39.944-62.072-38.42
    		c-4.26,0.22-8.288-1.76-10.656-5.284c-2.368-3.52-2.7-8.032-0.872-11.86l82.228-172.416c1.884-3.948,5.768-6.564,10.136-6.816
    		c37.124-2.2,60.656,23.616,81.236,46.24c18.736,20.6,36.216,39.916,62.076,38.424c4.224-0.204,8.288,1.76,10.656,5.284
    		c2.368,3.52,2.7,8.032,0.872,11.86l-82.232,172.416c-1.884,3.948-5.764,6.564-10.132,6.816
    		C398.059,333.001,396.607,333.041,395.179,333.041z M273.855,225.709c26.624,5.716,45.364,26.32,62.188,44.82
    		c17.028,18.724,33.16,36.46,55.24,38.348l71.44-149.788c-26.624-5.72-45.364-26.32-62.192-44.824
    		c-17.024-18.72-33.16-36.46-55.24-38.348L273.855,225.709z"/>
    	<path style="fill:#3C663E;" d="M362.991,119.777c-10.704-8.248-22.484-14.256-36.512-15.532c4.892-10.26,9.784-20.52,14.676-30.776
    		c14.032,1.276,25.812,7.28,36.516,15.532C372.775,99.257,367.883,109.517,362.991,119.777z"/>
    	<path style="fill:#3C663E;" d="M378.391,179.589c-9.74-10.276-19.372-20.78-30.076-29.036c4.892-10.256,9.784-20.52,14.672-30.772
    		c10.708,8.252,20.34,18.752,30.084,29.032C388.175,159.073,383.283,169.329,378.391,179.589z"/>
    	<path style="fill:#3C663E;" d="M423.791,176.493c-11.136-7.352-20.984-17.408-30.72-27.684c4.892-10.252,9.78-20.512,14.676-30.772
    		c9.74,10.276,19.584,20.328,30.72,27.684C433.579,155.977,428.683,166.241,423.791,176.493z"/>
    	<path style="fill:#3C663E;" d="M447.563,218.753c-14.892,0.524-27.312-4.132-38.444-11.484
    		c4.892-10.252,9.784-20.516,14.676-30.772c11.132,7.348,23.56,12.008,38.448,11.484
    		C457.347,198.237,452.455,208.493,447.563,218.753z"/>
    	<path style="fill:#3C663E;" d="M333.635,181.325c-10.704-8.248-22.484-14.252-36.516-15.532c4.892-10.26,9.784-20.512,14.68-30.768
    		c14.032,1.272,25.812,7.28,36.516,15.528C343.423,160.805,338.531,171.069,333.635,181.325z"/>
    	<path style="fill:#3C663E;" d="M349.035,241.137c-9.74-10.284-19.372-20.784-30.08-29.032c4.892-10.264,9.784-20.528,14.676-30.78
    		c10.708,8.252,20.34,18.752,30.08,29.036C358.823,220.621,353.927,230.881,349.035,241.137z"/>
    	<path style="fill:#3C663E;" d="M394.439,238.045c-11.136-7.352-20.984-17.404-30.724-27.684
    		c4.892-10.256,9.784-20.512,14.676-30.772c9.74,10.276,19.588,20.332,30.724,27.68
    		C404.219,217.529,399.327,227.785,394.439,238.045z"/>
    	<path style="fill:#3C663E;" d="M418.207,280.297c-14.896,0.532-27.316-4.132-38.452-11.476c4.896-10.256,9.788-20.516,14.68-30.776
    		c11.132,7.352,23.556,12.008,38.444,11.48C427.991,259.781,423.099,270.045,418.207,280.297z"/>
    	<path style="fill:#3C663E;" d="M304.279,242.877c-10.708-8.252-22.484-14.252-36.516-15.532
    		c4.892-10.26,9.784-20.516,14.676-30.772c14.032,1.272,25.812,7.28,36.516,15.536C314.067,222.365,309.171,232.617,304.279,242.877
    		z"/>
    	<path style="fill:#3C663E;" d="M365.083,299.593c-11.132-7.356-20.98-17.408-30.72-27.684c4.892-10.26,9.784-20.52,14.676-30.772
    		c9.74,10.276,19.588,20.324,30.72,27.684C374.867,279.081,369.975,289.337,365.083,299.593z"/>
    	<path style="fill:#3C663E;" d="M182.523,401.317c-1.732,0-3.492-0.38-5.16-1.172c-5.984-2.856-8.516-10.016-5.668-15.996
    		l93.092-195.192c2.856-5.984,10.016-8.504,16-5.668c5.984,2.856,8.516,10.016,5.664,15.996l-93.092,195.192
    		C191.303,398.793,187.003,401.317,182.523,401.317z"/>
    </g>
    <path style="fill:#B2EDA6;" d="M94.231,320.933c62.976,3.672,80.332-88.324,143.308-84.66
    	c-27.408-57.472-54.82-114.94-82.228-172.416c-62.98-3.668-80.332,88.328-143.312,84.664
    	C39.411,205.989,66.823,263.461,94.231,320.933z"/>
    <g>
    	<path style="fill:#3C663E;" d="M97.887,333.041c-0.004,0-0.004,0-0.008,0c-1.424,0-2.876-0.04-4.344-0.124
    		c-4.368-0.252-8.248-2.868-10.132-6.816L1.167,153.685c-1.824-3.828-1.492-8.34,0.872-11.86c2.368-3.524,6.392-5.488,10.656-5.284
    		c0.996,0.06,1.964,0.084,2.928,0.084c0.004,0,0.004,0,0.008,0c24.108-0.004,41.12-18.708,59.132-38.512
    		c20.576-22.628,44.06-48.424,81.236-46.24c4.368,0.252,8.252,2.868,10.136,6.816l81.668,171.248
    		c1.144,1.84,1.808,4.012,1.808,6.336c0,6.628-5.372,12-12,12c-0.024,0-0.052,0.004-0.08,0c-0.232,0-0.464-0.008-0.7-0.02
    		c-25.844-1.516-43.332,17.82-62.072,38.42C155.007,308.413,132.603,333.041,97.887,333.041z M30.331,159.085l71.444,149.792
    		c22.08-1.884,38.212-19.62,55.24-38.344c16.824-18.504,35.564-39.104,62.188-44.824L147.767,75.917
    		c-22.08,1.888-38.216,19.628-55.24,38.348C75.699,132.761,56.959,153.369,30.331,159.085z"/>
    	<path style="fill:#3C663E;" d="M130.071,119.777c10.704-8.248,22.484-14.256,36.512-15.532c-4.892-10.26-9.784-20.52-14.676-30.776
    		c-14.032,1.276-25.812,7.28-36.516,15.532C120.283,99.257,125.175,109.517,130.071,119.777z"/>
    	<path style="fill:#3C663E;" d="M114.667,179.589c9.74-10.276,19.372-20.78,30.076-29.036c-4.892-10.256-9.784-20.52-14.672-30.772
    		c-10.708,8.252-20.34,18.752-30.084,29.032C104.883,159.073,109.775,169.329,114.667,179.589z"/>
    	<path style="fill:#3C663E;" d="M69.267,176.493c11.136-7.352,20.984-17.408,30.72-27.684c-4.892-10.252-9.78-20.512-14.676-30.772
    		c-9.74,10.276-19.584,20.328-30.72,27.684C59.483,155.977,64.375,166.241,69.267,176.493z"/>
    	<path style="fill:#3C663E;" d="M45.499,218.753c14.892,0.524,27.312-4.132,38.444-11.484c-4.892-10.252-9.784-20.516-14.676-30.772
    		c-11.132,7.348-23.56,12.008-38.448,11.484C35.711,198.237,40.603,208.493,45.499,218.753z"/>
    	<path style="fill:#3C663E;" d="M159.423,181.325c10.704-8.248,22.484-14.252,36.516-15.532
    		c-4.892-10.26-9.784-20.512-14.676-30.768c-14.032,1.272-25.812,7.28-36.516,15.528
    		C149.635,160.805,154.527,171.069,159.423,181.325z"/>
    	<path style="fill:#3C663E;" d="M144.023,241.137c9.74-10.284,19.372-20.784,30.076-29.032c-4.892-10.264-9.784-20.528-14.676-30.78
    		c-10.708,8.252-20.34,18.752-30.08,29.036C134.239,220.621,139.131,230.881,144.023,241.137z"/>
    	<path style="fill:#3C663E;" d="M98.619,238.045c11.136-7.352,20.984-17.404,30.724-27.684
    		c-4.892-10.256-9.784-20.512-14.676-30.772c-9.736,10.276-19.584,20.332-30.724,27.68
    		C88.839,217.529,93.731,227.785,98.619,238.045z"/>
    	<path style="fill:#3C663E;" d="M74.851,280.297c14.896,0.532,27.316-4.132,38.452-11.476c-4.896-10.256-9.788-20.516-14.68-30.776
    		c-11.132,7.352-23.556,12.008-38.444,11.48C65.067,259.781,69.959,270.045,74.851,280.297z"/>
    	<path style="fill:#3C663E;" d="M188.779,242.877c10.708-8.252,22.484-14.252,36.516-15.532
    		c-4.892-10.26-9.784-20.516-14.676-30.772c-14.032,1.272-25.812,7.28-36.516,15.536
    		C178.995,222.365,183.887,232.617,188.779,242.877z"/>
    	<path style="fill:#3C663E;" d="M127.979,299.593c11.132-7.356,20.98-17.408,30.72-27.684c-4.892-10.26-9.784-20.52-14.676-30.772
    		c-9.74,10.276-19.588,20.324-30.72,27.684C118.191,279.081,123.083,289.337,127.979,299.593z"/>
    	<path style="fill:#3C663E;" d="M310.535,401.317c-4.48,0-8.78-2.524-10.84-6.84l-93.092-195.192
    		c-2.852-5.98-0.316-13.14,5.668-15.996c5.98-2.844,13.144-0.32,16,5.668l93.088,195.192c2.852,5.98,0.316,13.14-5.668,15.996
    		C314.027,400.937,312.267,401.317,310.535,401.317z"/>
    </g>
  </symbol>
</svg>
