<svg xmlns="http://www.w3.org/2000/svg" style="display:none;">
  <symbol id="edit-step" viewBox="0 0 470.007 470.007">
    <title>Edit step</title>
    <g>
    	<path style="fill:#F2484B;" d="M261.52,321.623L391.795,451.9l24.749-24.748l-59.565-59.565c-2.929-2.93-2.929-7.678,0-10.607
    		c2.93-2.928,7.678-2.928,10.607,0l59.565,59.565l24.749-24.749L321.623,261.52c-2.929-2.93-2.929-7.678,0-10.607l-10.606-10.605
    		l-70.71,70.711l10.606,10.605C253.842,318.696,258.59,318.696,261.52,321.623z M286.268,286.268c2.93-2.928,7.678-2.928,10.607,0
    		l35.355,35.355c2.929,2.93,2.929,7.678,0,10.607c-1.465,1.464-3.385,2.196-5.304,2.196s-3.839-0.732-5.304-2.196l-35.355-35.355
    		C283.339,293.946,283.339,289.198,286.268,286.268z"/>
    	<path style="fill:#F2484B;" d="M219.094,148.383c-2.929,2.927-7.677,2.928-10.607,0l-78.192-78.191
    		c-2.018,3.443-4.489,6.651-7.364,9.527c-5.88,5.88-13.012,9.975-20.571,12.035l81.378,81.377c2.929,2.93,2.929,7.678,0,10.607
    		c-1.465,1.464-3.385,2.196-5.304,2.196s-3.839-0.732-5.304-2.196l-81.378-81.377c-2.06,7.558-6.155,14.689-12.034,20.569
    		c-2.876,2.875-6.084,5.346-9.528,7.364l78.192,78.191c2.929,2.93,2.929,7.678,0,10.607l10.606,10.605l70.711-70.711
    		L219.094,148.383z"/>
    	<polygon style="fill:#F2484B;" points="44.328,30.776 21.289,21.289 30.776,44.328 	"/>
    	<path style="fill:#FFCC75;" d="M118.14,61.169L59.355,36.964L36.964,59.355l24.206,58.785c2.888-1.496,5.576-3.449,7.942-5.816
    		c7.088-7.087,10.371-16.71,8.784-25.743c-0.423-2.408,0.354-4.872,2.084-6.602c1.728-1.729,4.193-2.506,6.602-2.083
    		c9.029,1.586,18.655-1.696,25.742-8.784C114.69,66.745,116.644,64.058,118.14,61.169z"/>
    	<path style="fill:#082947;" d="M467.81,386.491L332.231,250.912c-2.93-2.928-7.678-2.928-10.607,0
    		c-2.929,2.93-2.929,7.678,0,10.607L451.9,391.795l-24.749,24.749l-59.565-59.565c-2.93-2.928-7.678-2.928-10.607,0
    		c-2.929,2.93-2.929,7.678,0,10.607l59.565,59.565L391.795,451.9L261.52,321.623c-2.93-2.928-7.678-2.928-10.607,0
    		c-2.929,2.93-2.929,7.678,0,10.607L386.492,467.81c1.465,1.464,3.385,2.196,5.304,2.196s3.839-0.732,5.304-2.196l70.711-70.711
    		C470.739,394.169,470.739,389.421,467.81,386.491z"/>
    	<path style="fill:#082947;" d="M148.383,208.487l-78.192-78.191c3.443-2.019,6.652-4.489,9.528-7.364
    		c5.879-5.88,9.974-13.012,12.034-20.569l81.378,81.377c1.465,1.464,3.385,2.196,5.304,2.196s3.839-0.732,5.304-2.196
    		c2.929-2.93,2.929-7.678,0-10.607L102.36,91.754c7.558-2.061,14.69-6.155,20.571-12.035c2.875-2.876,5.346-6.084,7.364-9.527
    		l78.192,78.191c2.931,2.928,7.679,2.927,10.607,0c2.929-2.93,2.929-7.678,0-10.607l-86.082-86.081
    		c-0.014-0.014-0.029-0.025-0.042-0.038c-0.069-0.067-0.142-0.13-0.214-0.194c-0.645-0.588-1.383-1.065-2.192-1.399L60.441,21.189
    		c-0.019-0.009-0.038-0.017-0.057-0.024l-50.028-20.6c-2.8-1.151-6.018-0.508-8.159,1.632c-2.141,2.142-2.784,5.359-1.632,8.159
    		l20.596,50.019c0.01,0.025,0.021,0.051,0.032,0.077l28.87,70.112c0.352,0.854,0.863,1.63,1.497,2.3
    		c0.03,0.032,0.058,0.066,0.089,0.098c0.016,0.017,0.03,0.034,0.046,0.051l86.081,86.082c1.465,1.464,3.384,2.196,5.304,2.196
    		c1.919,0,3.839-0.732,5.304-2.196C151.312,216.164,151.312,211.416,148.383,208.487z M86.581,77.896
    		c-2.408-0.423-4.874,0.354-6.602,2.083c-1.729,1.729-2.507,4.193-2.084,6.602c1.587,9.033-1.696,18.656-8.784,25.743
    		c-2.366,2.367-5.054,4.32-7.942,5.816L36.964,59.355l22.392-22.391l58.784,24.205c-1.496,2.889-3.449,5.576-5.816,7.942
    		C105.237,76.199,95.611,79.482,86.581,77.896z M44.328,30.776L30.776,44.328l-9.487-23.039L44.328,30.776z"/>
    	<path style="fill:#082947;" d="M321.623,332.231c1.465,1.464,3.385,2.196,5.304,2.196s3.839-0.732,5.304-2.196
    		c2.929-2.93,2.929-7.678,0-10.607l-35.355-35.355c-2.93-2.928-7.678-2.928-10.607,0c-2.929,2.93-2.929,7.678,0,10.607
    		L321.623,332.231z"/>
    	<path style="fill:#FF6E1D;" d="M390.288,122.931c-5.879-5.88-9.974-13.012-12.034-20.569L182.261,298.353
    		c-1.465,1.464-3.385,2.196-5.304,2.196c-1.92,0-3.839-0.732-5.304-2.196c-2.929-2.93-2.929-7.678,0-10.607L367.646,91.754
    		c-7.558-2.06-14.689-6.155-20.57-12.035c-2.875-2.876-5.345-6.084-7.364-9.528L18.107,391.795l24.749,24.749L143.37,316.03
    		c2.93-2.928,7.678-2.928,10.607,0c2.929,2.93,2.929,7.678,0,10.607L53.463,427.152L78.211,451.9l321.604-321.604
    		C396.372,128.277,393.163,125.807,390.288,122.931z"/>
    	<polygon style="fill:#FF6E1D;" points="439.231,44.328 448.717,21.289 425.678,30.776 	"/>
    	<path style="fill:#FFCC75;" d="M357.683,69.112c7.088,7.088,16.715,10.377,25.742,8.784c2.409-0.422,4.873,0.354,6.602,2.083
    		c1.729,1.729,2.507,4.193,2.084,6.602c-1.587,9.033,1.696,18.656,8.784,25.743c2.366,2.367,5.054,4.32,7.942,5.816l24.206-58.785
    		l-22.392-22.391l-58.784,24.205C353.363,64.058,355.317,66.746,357.683,69.112z"/>
    	<path style="fill:#082947;" d="M418.312,133.012c0.016-0.017,0.03-0.034,0.046-0.051c0.031-0.031,0.059-0.065,0.089-0.099
    		c0.634-0.669,1.145-1.445,1.496-2.299l28.868-70.104c0.012-0.03,0.025-0.061,0.038-0.092l20.594-50.012
    		c1.152-2.8,0.509-6.018-1.632-8.159c-2.142-2.14-5.358-2.783-8.159-1.632L409.63,21.162c-0.024,0.01-0.048,0.02-0.072,0.029
    		l-70.115,28.872c-0.809,0.333-1.547,0.811-2.192,1.398c-0.072,0.064-0.145,0.128-0.214,0.194c-0.013,0.014-0.028,0.024-0.042,0.038
    		L229.7,158.989l-70.711,70.711L2.197,386.491C0.79,387.899,0,389.806,0,391.795s0.79,3.896,2.196,5.304l70.711,70.711
    		c1.407,1.406,3.314,2.196,5.304,2.196s3.896-0.79,5.304-2.196l156.792-156.792l70.71-70.711L418.312,133.012z M53.463,427.152
    		l100.514-100.515c2.929-2.93,2.929-7.678,0-10.607c-2.93-2.928-7.678-2.928-10.607,0L42.855,416.544l-24.749-24.749L339.712,70.191
    		c2.018,3.444,4.489,6.652,7.364,9.528c5.881,5.88,13.012,9.976,20.57,12.035L171.654,287.745c-2.929,2.93-2.929,7.678,0,10.607
    		c1.465,1.464,3.384,2.196,5.304,2.196c1.919,0,3.839-0.732,5.304-2.196l195.992-195.991c2.06,7.558,6.155,14.689,12.034,20.569
    		c2.876,2.876,6.084,5.346,9.528,7.364L78.211,451.9L53.463,427.152z M410.651,36.964l22.392,22.391l-24.206,58.785
    		c-2.888-1.496-5.576-3.449-7.942-5.816c-7.088-7.087-10.371-16.71-8.784-25.743c0.423-2.408-0.354-4.872-2.084-6.602
    		c-1.729-1.729-4.192-2.505-6.602-2.083c-9.027,1.593-18.654-1.696-25.742-8.784c-2.366-2.365-4.32-5.054-5.816-7.942
    		L410.651,36.964z M439.231,44.328l-13.552-13.553l23.039-9.486L439.231,44.328z"/>
    </g>
  </symbol>

  <symbol id="delete-step" viewBox="0 0 483 483">
    <title>Delete step</title>
    <g>
    	<rect x="132.669" style="fill:#D8D7DA;" width="123.232" height="38"/>
    	<rect x="194.285" y="38" style="fill:#787680;" width="160" height="80"/>
    	<path style="fill:#ACABB1;" d="M194.285,288.025c22.186-43.793,67.643-73.884,120-73.884c4.602,0,9.15,0.234,13.635,0.687
    		L334.245,118h-139.96V288.025z"/>
    	<path style="fill:#ACABB1;" d="M194.285,443h24.42c-9.795-9.913-18.063-21.335-24.42-33.884V443z"/>
    	<path style="fill:#C6C5CA;" d="M179.856,348.57c0-21.767,5.206-42.339,14.429-60.545V118H54.325l21.23,325h118.73v-33.884
    		C185.062,390.909,179.856,370.337,179.856,348.57z"/>
    	<rect x="34.285" y="38" style="fill:#898890;" width="160" height="80"/>
    	<path style="fill:#FFDA44;" d="M314.285,376.855l-29.427,29.427l-28.284-28.284l29.427-29.427l-29.427-29.427l28.284-28.284
    		l29.427,29.427V214.141c-52.357,0-97.814,30.091-120,73.884c-9.223,18.207-14.429,38.778-14.429,60.545
    		c0,21.767,5.206,42.339,14.429,60.546c6.357,12.549,14.626,23.971,24.42,33.884c24.386,24.68,58.225,40,95.58,40V376.855z"/>
    	<path style="fill:#FFCD00;" d="M327.92,214.828c-4.484-0.454-9.033-0.687-13.635-0.687v106.145c0,0,29.427-29.427,29.427-29.427
    		l28.284,28.284l-29.427,29.427l29.427,29.427l-28.284,28.284l-29.427-29.427c0,0,0,106.145,0,106.145
    		c74.125,0,134.429-60.305,134.429-134.43C448.715,279.048,395.665,221.684,327.92,214.828z"/>
    	<polygon style="fill:#2488FF;" points="256.574,319.144 286.001,348.571 256.574,377.998 284.859,406.282 314.286,376.855
    		343.713,406.282 371.997,377.998 342.57,348.571 371.997,319.144 343.713,290.859 314.286,320.286 284.859,290.859 	"/>
    </g>
  </symbol>

  <symbol id="icon__loading" viewBox="0 0 24 24">
    <title>Icon loading to button</title>
    <path d="M12.005 17.908h-.01c-.51 0-.928.415-.928.93v4.233c0 .513.417.93.93.93h.008c.512 0 .93-.417.93-.93v-4.233c0-.512-.418-.93-.93-.93zm.927-16.98c0-.512-.416-.928-.928-.928h-.01c-.512 0-.928.416-.927.928v4.234c0 .513.417.93.93.93h.008c.512 0 .93-.417.93-.93h-.003V.928zm-6.84 11.077v-.01c0-.51-.417-.928-.93-.928H.928c-.512 0-.928.417-.928.93v.008c0 .512.416.928.928.928h4.234c.513 0 .93-.416.93-.928zm16.98-.938h-4.235c-.512 0-.928.417-.928.93v.008c0 .512.415.928.927.928h4.234c.514 0 .93-.416.93-.928v-.01c0-.51-.416-.928-.93-.928zm-6.845 6.388c-.256-.445-.825-.596-1.268-.34l-.01.005c-.444.256-.595.823-.34 1.268l2.117 3.667c.257.445.824.596 1.27.34l.007-.005c.444-.257.596-.824.34-1.27l-2.117-3.665zM7.273 1.947c-.256-.445-.823-.596-1.268-.34l-.008.004c-.445.257-.596.825-.34 1.27l2.117 3.666c.256.445.823.596 1.268.34l.008-.005c.444-.255.596-.823.34-1.268L7.273 1.947zm-.388 13.01l-.005-.006c-.257-.444-.824-.595-1.27-.34l-3.665 2.117c-.445.256-.596.824-.34 1.27l.005.007c.256.444.824.596 1.27.34l3.665-2.117c.445-.256.596-.825.34-1.27zm10.228-5.915l.006.008c.255.445.822.596 1.267.34l3.667-2.117c.443-.256.596-.823.34-1.268l-.005-.008c-.258-.445-.825-.596-1.27-.34l-3.667 2.116c-.445.257-.596.824-.34 1.27zm4.942 7.685l-3.668-2.116c-.443-.255-1.012-.104-1.268.34l-.005.008c-.256.444-.105 1.013.34 1.27l3.666 2.115c.445.257 1.014.104 1.27-.34l.005-.007c.256-.444.105-1.013-.34-1.27zM1.945 7.272L5.61 9.388c.445.257 1.013.105 1.27-.34l.005-.007c.256-.443.104-1.01-.34-1.268L2.88 5.656c-.445-.256-1.014-.105-1.27.34l-.005.008c-.256.443-.105 1.012.34 1.268zM9.05 17.12l-.01-.005c-.443-.256-1.01-.105-1.268.34L5.656 21.12c-.256.445-.105 1.013.34 1.27l.008.005c.443.256 1.012.105 1.268-.34l2.117-3.667c.255-.443.104-1.012-.34-1.268zm5.9-10.24l.01.005c.442.256 1.01.105 1.267-.34l2.116-3.668c.257-.444.104-1.012-.34-1.27l-.007-.002c-.444-.257-1.012-.105-1.27.34L14.612 5.61c-.257.445-.104 1.013.34 1.27z" fill-rule="evenodd"/>
  </symbol>
</svg>
